# This file uses centimeters as units for non-parametric coordinates.

mtllib Axe.mtl
g default
v -0.312057 6.257954 0.759635
v 0.312057 6.257954 0.759635
v -0.312057 7.470551 0.759635
v 0.312057 7.470551 0.759635
v -0.312057 7.470551 -0.582144
v 0.312057 7.470551 -0.582144
v -0.312057 6.257954 -0.582144
v 0.312057 6.257954 -0.582144
v -0.184064 6.146706 1.332986
v 0.184064 6.146706 1.332986
v 0.184064 7.491945 1.410003
v -0.184064 7.491945 1.410003
v -0.084163 6.035459 1.807924
v 0.084163 6.035459 1.807924
v 0.084163 7.551847 1.927728
v -0.084163 7.551847 1.927728
v 0.000000 5.872868 2.218683
v 0.000000 7.611749 2.321372
v -0.221390 7.467760 -0.824735
v 0.221390 7.467760 -0.824735
v 0.221390 6.260745 -0.824735
v -0.221390 6.260745 -0.824735
v -0.334337 7.149643 0.759635
v -0.184064 7.170164 1.535097
v -0.084163 7.189052 2.037221
v 0.000000 7.237138 2.439672
v 0.084163 7.189052 2.037221
v 0.184064 7.170164 1.535097
v 0.334337 7.149643 0.759635
v 0.334337 7.149643 -0.582144
v 0.246940 7.149643 -0.867522
v -0.246940 7.149643 -0.867522
v -0.334337 7.149643 -0.582144
v -0.334337 6.708934 0.759635
v -0.184064 6.565722 1.502828
v -0.084163 6.453946 1.993679
v 0.000000 6.374102 2.398072
v 0.084163 6.453946 1.993679
v 0.184064 6.565722 1.502828
v 0.334337 6.708934 0.759635
v 0.334337 6.708934 -0.582144
v 0.246940 6.708934 -0.867522
v -0.246940 6.708934 -0.867522
v -0.334337 6.708934 -0.582144
v 0.000000 6.257954 0.759635
v 0.000000 6.257954 -0.582144
v 0.000000 6.260745 -0.890212
v 0.000000 6.708934 -0.932999
v 0.000000 7.149643 -0.932999
v 0.000000 7.467760 -0.890212
v 0.000000 7.470551 -0.582144
v 0.000000 7.470551 0.759635
v 0.000000 7.491945 1.410003
v 0.000000 7.551847 1.927728
v 0.000000 6.035459 1.807924
v 0.000000 6.146706 1.332986
v -0.302128 3.361955 0.000710
v -0.302128 3.295829 0.419597
v -0.000000 3.262766 0.629040
v 0.302128 3.295829 0.419597
v 0.302128 3.361955 0.000710
v 0.000000 3.395017 -0.208734
v -0.302128 4.190221 0.010383
v -0.302128 4.236217 0.452573
v -0.000000 4.259213 0.673667
v 0.302128 4.236217 0.452573
v 0.302128 4.190221 0.010383
v 0.000000 4.167224 -0.210712
v -0.302128 5.459043 -0.250845
v -0.302128 5.505038 0.463235
v -0.000000 5.528035 0.684330
v 0.302128 5.505038 0.463235
v 0.302128 5.459043 -0.250845
v 0.000000 5.436045 -0.471940
v -0.302128 5.881040 -0.342214
v -0.302128 5.893380 0.463974
v -0.000000 5.902638 0.686069
v 0.302128 5.893380 0.463974
v 0.302128 5.881040 -0.342213
v 0.000000 5.871781 -0.564308
v -0.275515 6.257955 -0.326299
v -0.275515 6.257955 0.448059
v -0.000000 6.257955 0.661386
v 0.275515 6.257955 0.448060
v 0.275515 6.257955 -0.326299
v -0.000000 6.257955 -0.539626
v -0.274288 1.487664 -0.230556
v -0.274288 1.443625 0.128407
v -0.000000 1.413609 0.318550
v 0.274288 1.443625 0.128407
v 0.274288 1.487664 -0.230556
v -0.000000 1.517680 -0.420700
v -0.333062 -0.261875 -0.137705
v -0.333062 -0.053520 0.280790
v -0.000000 0.050660 0.490037
v 0.333062 -0.053520 0.280790
v 0.333062 -0.261875 -0.137705
v -0.000000 -0.366055 -0.346952
v -0.333062 -1.125526 0.176835
v -0.333062 -0.703923 0.765927
v -0.000000 -0.423815 0.767258
v 0.333062 -0.703923 0.765927
v 0.333062 -1.125525 0.176835
v -0.000000 -1.059108 -0.176354
v -0.303114 0.629608 -0.238329
v -0.000000 0.593808 -0.437842
v 0.303114 0.629608 -0.238329
v 0.303114 0.701205 0.128710
v -0.000000 0.737005 0.328223
v -0.303114 0.701205 0.128710
v -0.275515 7.585417 -0.326299
v -0.275515 7.585417 0.448059
v -0.000000 7.585417 0.234733
v -0.000000 7.585417 0.661386
v 0.275515 7.585417 0.448060
v 0.275515 7.585417 -0.326299
v -0.000000 7.585417 -0.539626
v -0.275515 7.470551 -0.326299
v -0.275515 7.470551 0.448059
v -0.000000 7.470551 0.661386
v 0.275515 7.470551 0.448060
v 0.275515 7.470551 -0.326299
v -0.000000 7.470551 -0.539626
vt 0.157470 0.202156
vt 0.158200 0.344305
vt 0.802059 0.314898
vt 0.802789 0.172750
vt 0.551686 0.838624
vt 0.157302 0.169518
vt 0.984008 0.162027
vt 0.953376 0.159974
vt 0.798870 0.162039
vt 0.305840 0.358409
vt 0.769060 0.304245
vt 0.768844 0.162095
vt 0.954175 0.333112
vt 0.953849 0.191236
vt 0.551200 0.780517
vt 0.551486 0.638735
vt 0.582408 0.638745
vt 0.187495 0.201970
vt 0.306149 0.154385
vt 0.781066 0.100197
vt 0.956308 0.416691
vt 0.814020 0.383912
vt 0.158554 0.413242
vt 0.553691 0.555194
vt 0.584729 0.568392
vt 0.306228 0.102707
vt 0.790600 0.048502
vt 0.958192 0.470911
vt 0.823349 0.439186
vt 0.158838 0.468456
vt 0.555672 0.500983
vt 0.590619 0.512524
vt 0.306299 0.055905
vt 0.560455 0.457448
vt 0.831230 0.481419
vt 0.464836 0.833953
vt 0.777822 0.329931
vt 0.550807 0.811677
vt 0.581465 0.809602
vt 0.509024 0.638593
vt 0.495431 0.558325
vt 0.484852 0.505228
vt 0.879759 0.510275
vt 0.887387 0.466505
vt 0.898059 0.413434
vt 0.911707 0.333216
vt 0.911503 0.191416
vt 0.911687 0.160133
vt 0.508375 0.838624
vt 0.509145 0.811795
vt 0.508842 0.780419
vt 0.336082 0.216314
vt 0.323860 0.154417
vt 0.314326 0.102722
vt 0.465549 0.781440
vt 0.466075 0.809399
vt 0.798776 0.100165
vt 0.306056 0.216259
vt 0.798698 0.048487
vt 0.428880 0.479919
vt 0.831366 0.491685
vt 0.798627 0.001686
vt 0.831447 0.439236
vt 0.999002 0.502094
vt 0.596545 0.469899
vt 0.159055 0.510638
vt 0.831730 0.384022
vt 0.832084 0.315085
vt 0.832815 0.172937
vt 0.583029 0.834525
vt 0.985528 0.137082
vt 0.832982 0.140299
vt 0.954163 0.133045
vt 0.910831 0.133295
vt 0.305791 0.391048
vt 0.799135 0.336828
vt 0.867272 0.138075
vt 0.799085 0.304189
vt 0.811645 0.147103
vt 0.868561 0.162620
vt 0.477311 0.461436
vt 0.962887 0.514462
vt 0.327103 0.384150
vt 0.335866 0.358464
vt 0.868054 0.190549
vt 0.178640 0.176322
vt 0.984679 0.190254
vt 0.582130 0.781434
vt 0.166936 0.468405
vt 0.993161 0.459448
vt 0.846930 0.447219
vt 0.444357 0.524428
vt 0.176264 0.413132
vt 0.987369 0.403542
vt 0.857565 0.395737
vt 0.454890 0.575957
vt 0.188226 0.344118
vt 0.985178 0.333122
vt 0.868308 0.333360
vt 0.465496 0.638396
vt 0.734778 0.330564
vt 0.704290 0.349763
vt 0.667729 0.253320
vt 0.704064 0.242567
vt 0.673242 0.366892
vt 0.633425 0.266419
vt 0.640575 0.380215
vt 0.601408 0.285226
vt 0.606849 0.391877
vt 0.569522 0.307397
vt 0.573891 0.406418
vt 0.538461 0.327902
vt 0.766727 0.313873
vt 0.738805 0.231545
vt 0.215395 0.139142
vt 0.147533 0.139142
vt 0.147533 0.067090
vt 0.215395 0.067090
vt 0.615890 0.123582
vt 0.672296 0.101339
vt 0.582184 0.137039
vt 0.550358 0.155151
vt 0.497319 0.185502
vt 0.466133 0.205492
vt 0.706730 0.090049
vt 0.599582 0.083996
vt 0.660698 0.055185
vt 0.567010 0.098740
vt 0.535135 0.115228
vt 0.474516 0.144718
vt 0.442387 0.161289
vt 0.693934 0.040928
vt 0.583990 0.046887
vt 0.644569 0.016632
vt 0.552395 0.062264
vt 0.520786 0.077331
vt 0.459884 0.105921
vt 0.428880 0.119975
vt 0.675596 0.001103
vt 0.806316 0.526064
vt 0.779693 0.543181
vt 0.750561 0.560292
vt 0.719383 0.572601
vt 0.689830 0.582889
vt 0.659012 0.594475
vt 0.834731 0.508813
vt 0.813890 0.620229
vt 0.844287 0.609391
vt 0.891344 0.691645
vt 0.850489 0.699091
vt 0.780161 0.634254
vt 0.810428 0.711120
vt 0.747895 0.652289
vt 0.776064 0.734853
vt 0.719888 0.669813
vt 0.743840 0.763427
vt 0.687018 0.684622
vt 0.708756 0.783753
vt 0.876377 0.592417
vt 0.928788 0.676706
vt 0.936458 0.779251
vt 0.872520 0.782982
vt 0.833551 0.767186
vt 0.816356 0.809280
vt 0.771900 0.857839
vt 0.727524 0.858578
vt 0.967017 0.743081
vt 0.181464 0.170562
vt 0.181464 0.033658
vt 0.857093 0.121005
vt 0.813755 0.063290
vt 0.848480 0.058903
vt 0.825469 0.028159
vt 0.858880 0.022265
vt 0.902351 0.079926
vt 0.890639 0.115143
vt 0.852940 0.133327
vt 0.802059 0.066519
vt 0.817666 0.018783
vt 0.863132 0.009981
vt 0.914067 0.076803
vt 0.898423 0.124527
vn 0.000000 1.000000 0.000000
vn 0.000000 1.000000 0.000000
vn 0.000000 1.000000 0.000000
vn 0.000000 1.000000 0.000000
vn -0.000000 0.058346 -0.998296
vn 0.000000 0.144208 -0.989547
vn 0.266676 0.138986 -0.953712
vn 0.261095 0.056137 -0.963680
vn 0.000000 -1.000000 0.000000
vn 0.000000 -1.000000 0.000000
vn 0.000000 -1.000000 0.000000
vn 0.000000 -1.000000 0.000000
vn 0.999572 0.029240 0.000000
vn 0.999572 0.029240 0.000000
vn 0.997599 0.069260 0.000000
vn 0.997599 0.069260 0.000000
vn -0.999572 0.029240 0.000000
vn -0.999572 0.029240 0.000000
vn -0.997599 0.069260 0.000000
vn -0.997599 0.069260 0.000000
vn 0.000000 -0.981691 -0.190479
vn 0.000000 -0.981691 -0.190479
vn 0.000000 -0.981691 -0.190479
vn 0.000000 -0.981691 -0.190479
vn 0.981154 0.018894 0.192302
vn 0.981130 0.021470 0.192153
vn 0.979413 0.070752 0.189063
vn 0.979413 0.070752 0.189063
vn 0.000000 0.999459 -0.032877
vn 0.000000 0.999459 -0.032877
vn 0.000000 0.999459 -0.032877
vn 0.000000 0.999459 -0.032877
vn -0.979413 0.070752 0.189063
vn -0.981130 0.021470 0.192153
vn -0.981154 0.018894 0.192302
vn -0.979413 0.070752 0.189063
vn 0.000000 -0.973647 -0.228063
vn 0.000000 -0.973647 -0.228063
vn 0.000000 -0.973647 -0.228063
vn 0.000000 -0.973647 -0.228063
vn 0.981030 0.013281 0.193403
vn 0.981063 0.017483 0.192900
vn 0.980249 0.064111 0.187090
vn 0.980249 0.064111 0.187090
vn 0.000000 0.993373 -0.114937
vn 0.000000 0.993373 -0.114937
vn 0.000000 0.993373 -0.114937
vn 0.000000 0.993373 -0.114937
vn -0.980249 0.064111 0.187090
vn -0.981063 0.017483 0.192900
vn -0.981030 0.013281 0.193403
vn -0.980249 0.064111 0.187090
vn 0.000000 -0.929807 -0.368048
vn 0.000000 -0.929807 -0.368048
vn 0.000000 -0.929807 -0.368048
vn 0.979262 0.012132 0.202233
vn 0.979263 0.012317 0.202220
vn 0.978179 0.061322 0.198509
vn 0.978179 0.061322 0.198509
vn 0.000000 0.988619 -0.150439
vn 0.000000 0.988619 -0.150439
vn 0.000000 0.988619 -0.150439
vn -0.978179 0.061322 0.198509
vn -0.979263 0.012317 0.202220
vn -0.979262 0.012132 0.202233
vn -0.978179 0.061322 0.198509
vn 0.000000 0.999946 -0.010346
vn 0.000000 0.999947 -0.010346
vn 0.001270 0.999946 -0.010346
vn 0.001270 0.999946 -0.010346
vn 0.943399 0.091948 -0.318659
vn 0.952104 0.036954 -0.303535
vn 0.952261 0.035733 -0.303188
vn 0.943399 0.091948 -0.318659
vn 0.001270 -0.999946 -0.010345
vn 0.000000 -0.999947 -0.010345
vn 0.000000 -0.999947 -0.010345
vn 0.001270 -0.999946 -0.010345
vn -0.952261 0.035733 -0.303188
vn -0.952104 0.036954 -0.303535
vn -0.943399 0.091948 -0.318659
vn -0.943399 0.091948 -0.318659
vn -0.980604 -0.027076 0.194123
vn -0.980512 -0.029877 0.194176
vn -0.980719 -0.037902 0.191711
vn -0.980721 -0.037657 0.191754
vn -0.980210 -0.035588 0.194735
vn -0.980183 -0.034853 0.195006
vn 0.980183 -0.034853 0.195006
vn 0.980210 -0.035588 0.194735
vn 0.980721 -0.037657 0.191754
vn 0.980719 -0.037902 0.191711
vn 0.980512 -0.029877 0.194176
vn 0.980604 -0.027076 0.194123
vn 0.999688 -0.024978 0.000000
vn 0.999688 -0.024978 0.000000
vn 0.951551 -0.031841 -0.305837
vn 0.951655 -0.031200 -0.305579
vn 0.000000 -0.050313 -0.998734
vn 0.262321 -0.048453 -0.963763
vn -0.951655 -0.031200 -0.305579
vn -0.951551 -0.031841 -0.305837
vn -0.999688 -0.024978 0.000000
vn -0.999688 -0.024978 0.000000
vn -0.978833 -0.063076 0.194697
vn -0.978833 -0.063076 0.194697
vn -0.979688 -0.078371 0.184579
vn -0.979688 -0.078371 0.184579
vn -0.980823 -0.071919 0.181148
vn -0.980823 -0.071919 0.181148
vn 0.980823 -0.071919 0.181148
vn 0.980823 -0.071919 0.181148
vn 0.979688 -0.078371 0.184579
vn 0.979688 -0.078371 0.184579
vn 0.978833 -0.063076 0.194697
vn 0.978833 -0.063076 0.194697
vn 0.998782 -0.049342 0.000000
vn 0.998782 -0.049342 0.000000
vn 0.945422 -0.065479 -0.319201
vn 0.945422 -0.065479 -0.319201
vn 0.000000 -0.102889 -0.994693
vn 0.267963 -0.099126 -0.958316
vn -0.945422 -0.065479 -0.319201
vn -0.945422 -0.065479 -0.319201
vn -0.998782 -0.049342 0.000000
vn -0.998782 -0.049342 0.000000
vn 0.000000 -1.000000 0.000000
vn 0.000000 -1.000000 0.000000
vn -0.001270 -0.999946 -0.010344
vn -0.001270 -0.999946 -0.010344
vn -0.262321 -0.048453 -0.963764
vn -0.267963 -0.099126 -0.958316
vn -0.261095 0.056137 -0.963680
vn -0.266676 0.138986 -0.953712
vn -0.001270 0.999946 -0.010346
vn -0.001270 0.999946 -0.010346
vn 0.000000 1.000000 0.000000
vn 0.000000 1.000000 0.000000
vn 0.000000 0.999459 -0.032877
vn 0.000000 0.999459 -0.032877
vn 0.000000 0.993373 -0.114937
vn 0.000000 0.993373 -0.114937
vn 0.000000 0.988619 -0.150439
vn 0.000000 -0.929807 -0.368048
vn 0.000000 -0.973647 -0.228063
vn 0.000000 -0.973647 -0.228063
vn 0.000000 -0.981691 -0.190479
vn 0.000000 -0.981691 -0.190479
vn -1.000000 -0.000000 -0.000000
vn -1.000000 -0.000000 -0.000000
vn -1.000000 -0.000000 -0.000000
vn -1.000000 -0.000000 -0.000000
vn -0.580331 -0.032604 0.813728
vn -0.580331 -0.032604 0.813728
vn -0.580331 -0.032604 0.813728
vn -0.580331 -0.032604 0.813728
vn 0.580331 -0.032604 0.813728
vn 0.580331 -0.032604 0.813728
vn 0.580331 -0.032604 0.813728
vn 0.580331 -0.032604 0.813728
vn 1.000000 -0.000000 0.000000
vn 1.000000 -0.000000 0.000000
vn 1.000000 -0.000000 0.000000
vn 1.000000 -0.000000 0.000000
vn 0.580318 0.003916 -0.814380
vn 0.580318 0.003916 -0.814380
vn 0.580318 0.003916 -0.814380
vn 0.580318 0.003916 -0.814380
vn -0.580318 0.003916 -0.814381
vn -0.580318 0.003916 -0.814381
vn -0.580318 0.003916 -0.814380
vn -0.580318 0.003916 -0.814381
vn 0.000000 -0.772849 0.634590
vn 0.000000 -0.772849 0.634590
vn 0.000001 -0.860154 0.510034
vn 0.000001 -0.860154 0.510034
vn -1.000000 -0.000000 -0.000000
vn -1.000000 -0.000000 -0.000000
vn -1.000000 -0.000000 -0.000000
vn -1.000000 -0.000000 -0.000000
vn -0.590204 -0.006783 0.807226
vn -0.590204 -0.006783 0.807226
vn -0.590204 -0.006783 0.807226
vn -0.590204 -0.006783 0.807226
vn 0.590203 -0.006783 0.807226
vn 0.590203 -0.006783 0.807226
vn 0.590203 -0.006783 0.807226
vn 0.590203 -0.006783 0.807226
vn 1.000000 0.000000 0.000000
vn 1.000000 0.000000 0.000000
vn 1.000000 0.000000 0.000000
vn 1.000000 0.000000 0.000000
vn 0.590720 -0.162709 -0.790301
vn 0.590720 -0.162709 -0.790301
vn 0.590720 -0.162709 -0.790301
vn 0.590720 -0.162709 -0.790301
vn -0.590720 -0.162709 -0.790301
vn -0.590720 -0.162709 -0.790301
vn -0.590720 -0.162709 -0.790301
vn -0.590720 -0.162709 -0.790301
vn -1.000000 0.000000 -0.000000
vn -1.000000 0.000000 -0.000000
vn -1.000000 0.000000 -0.000000
vn -1.000000 0.000000 -0.000000
vn -0.591330 -0.002619 0.806426
vn -0.591330 -0.002619 0.806426
vn -0.591330 -0.002619 0.806426
vn -0.591330 -0.002619 0.806426
vn 0.591330 -0.002619 0.806426
vn 0.591330 -0.002619 0.806426
vn 0.591330 -0.002619 0.806426
vn 0.591330 -0.002619 0.806426
vn 1.000000 -0.000000 0.000000
vn 1.000000 -0.000000 0.000000
vn 1.000000 -0.000000 0.000000
vn 1.000000 -0.000000 0.000000
vn 0.588745 -0.169312 -0.790388
vn 0.588745 -0.169312 -0.790388
vn 0.588745 -0.169312 -0.790388
vn 0.588745 -0.169312 -0.790388
vn -0.588745 -0.169312 -0.790388
vn -0.588745 -0.169312 -0.790388
vn -0.588745 -0.169312 -0.790388
vn -0.588745 -0.169312 -0.790388
vn -0.997433 0.071599 -0.000559
vn -0.997433 0.071599 -0.000559
vn -0.997433 0.071599 -0.000559
vn -0.997433 0.071599 -0.000559
vn -0.601262 0.067130 0.796227
vn -0.601262 0.067130 0.796227
vn -0.601262 0.067130 0.796227
vn -0.601263 0.067130 0.796227
vn 0.601262 0.067130 0.796227
vn 0.601262 0.067130 0.796227
vn 0.601262 0.067130 0.796227
vn 0.601262 0.067130 0.796227
vn 0.997433 0.071599 -0.000559
vn 0.997433 0.071599 -0.000559
vn 0.997433 0.071599 -0.000559
vn 0.997433 0.071599 -0.000559
vn 0.600078 0.063352 -0.797429
vn 0.600078 0.063352 -0.797429
vn 0.600078 0.063352 -0.797429
vn 0.600078 0.063352 -0.797429
vn -0.600077 0.063352 -0.797430
vn -0.600077 0.063352 -0.797430
vn -0.600077 0.063352 -0.797430
vn -0.600077 0.063352 -0.797430
vn -0.999891 -0.014649 -0.002075
vn -0.999891 -0.014649 -0.002075
vn -0.999891 -0.014649 -0.002075
vn -0.999891 -0.014649 -0.002075
vn -0.574438 -0.135544 0.807247
vn -0.574438 -0.135544 0.807247
vn -0.574438 -0.135544 0.807247
vn -0.574438 -0.135544 0.807247
vn 0.574438 -0.135544 0.807248
vn 0.574438 -0.135544 0.807248
vn 0.574438 -0.135544 0.807248
vn 0.574438 -0.135544 0.807248
vn 0.999891 -0.014649 -0.002075
vn 0.999891 -0.014649 -0.002075
vn 0.999891 -0.014649 -0.002075
vn 0.999891 -0.014649 -0.002075
vn 0.574082 0.091865 -0.813628
vn 0.574082 0.091865 -0.813628
vn 0.574082 0.091865 -0.813628
vn 0.574082 0.091865 -0.813628
vn -0.574081 0.091865 -0.813629
vn -0.574081 0.091865 -0.813629
vn -0.574081 0.091865 -0.813629
vn -0.574081 0.091865 -0.813629
vn -0.999355 0.035221 -0.006960
vn -0.999353 0.035108 -0.007766
vn -0.999330 0.034475 -0.012286
vn -0.999330 0.034475 -0.012286
vn -0.561707 0.106846 0.820408
vn -0.561698 0.112643 0.819638
vn -0.559840 0.187442 0.807121
vn -0.559840 0.187442 0.807121
vn 0.561698 0.112643 0.819639
vn 0.561707 0.106846 0.820408
vn 0.559840 0.187442 0.807122
vn 0.559840 0.187442 0.807121
vn 0.999353 0.035108 -0.007766
vn 0.999355 0.035221 -0.006960
vn 0.999330 0.034475 -0.012286
vn 0.999330 0.034475 -0.012286
vn 0.555185 -0.033998 -0.831031
vn 0.555506 -0.030290 -0.830961
vn 0.550899 -0.077053 -0.831007
vn 0.550899 -0.077053 -0.831007
vn -0.555506 -0.030290 -0.830961
vn -0.555185 -0.033998 -0.831032
vn -0.550898 -0.077053 -0.831008
vn -0.550898 -0.077053 -0.831008
vn -1.000000 -0.000000 -0.000000
vn -1.000000 -0.000000 -0.000000
vn -1.000000 -0.000000 -0.000000
vn -1.000000 -0.000000 -0.000000
vn -0.505164 0.484175 0.714412
vn -0.505164 0.484175 0.714412
vn -0.505164 0.484175 0.714411
vn -0.505164 0.484175 0.714412
vn 0.505163 0.484175 0.714412
vn 0.505163 0.484175 0.714412
vn 0.505164 0.484175 0.714412
vn 0.505164 0.484175 0.714412
vn 1.000000 -0.000000 0.000000
vn 1.000000 -0.000000 0.000000
vn 1.000000 -0.000000 0.000000
vn 1.000000 -0.000000 0.000000
vn 0.635450 -0.229736 -0.737174
vn 0.635450 -0.229736 -0.737174
vn 0.635450 -0.229736 -0.737174
vn 0.635450 -0.229736 -0.737174
vn -0.635449 -0.229736 -0.737174
vn -0.635449 -0.229736 -0.737174
vn -0.635449 -0.229736 -0.737174
vn -0.635449 -0.229736 -0.737174
vn -0.559123 0.020634 -0.828828
vn -0.559123 0.020634 -0.828828
vn 0.559123 0.020634 -0.828828
vn 0.559123 0.020634 -0.828828
vn 0.999351 0.036004 -0.001367
vn 0.999351 0.036004 -0.001367
vn 0.559420 0.017189 0.828706
vn 0.559420 0.017189 0.828706
vn -0.559420 0.017189 0.828706
vn -0.559420 0.017189 0.828706
vn -0.999351 0.036004 -0.001367
vn -0.999351 0.036004 -0.001367
vn -0.000000 -0.004752 0.999989
vn 0.000001 -0.982774 -0.184812
vn 0.000000 1.000000 -0.000000
vn 0.000000 1.000000 0.000000
vn 0.000000 1.000000 -0.000000
vn 0.000000 1.000000 -0.000001
vn 0.000000 1.000000 -0.000001
vn 0.000000 1.000000 0.000000
vn 0.000000 1.000000 -0.000000
vn -1.000000 0.000000 -0.000000
vn -1.000000 0.000000 -0.000000
vn -1.000000 0.000000 -0.000000
vn -1.000000 0.000000 -0.000000
vn -0.612216 0.000000 0.790691
vn -0.612216 0.000000 0.790691
vn -0.612216 0.000000 0.790691
vn -0.612216 0.000000 0.790691
vn 0.612216 0.000000 0.790691
vn 0.612216 0.000000 0.790691
vn 0.612216 0.000000 0.790691
vn 0.612216 0.000000 0.790691
vn 1.000000 0.000000 0.000000
vn 1.000000 0.000000 0.000000
vn 1.000000 0.000000 0.000000
vn 1.000000 0.000000 0.000000
vn 0.612216 0.000000 -0.790690
vn 0.612216 0.000000 -0.790690
vn 0.612216 0.000000 -0.790690
vn 0.612216 0.000000 -0.790690
vn -0.612216 0.000000 -0.790691
vn -0.612216 0.000000 -0.790691
vn -0.612216 0.000000 -0.790691
vn -0.612216 0.000000 -0.790691
s 1
g Axe
usemtl initialShadingGroup
f 51/69/1 52/68/2 4/3/3 6/4/4
s 2
f 49/73/5 50/71/6 20/7/7 31/8/8
s 3
f 45/9/9 46/78/10 8/11/11 2/12/12
s 4
f 29/13/13 30/14/14 6/87/15 4/98/16
s 5
f 33/15/17 23/16/18 3/17/19 5/88/20
s 6
f 56/57/21 45/9/22 2/12/23 10/20/24
s 7
f 28/21/25 29/13/26 4/98/27 11/94/28
s 8
f 4/3/29 52/68/30 53/67/31 11/22/32
s 9
f 3/17/33 23/16/34 24/24/35 12/25/36
s 10
f 55/59/37 56/57/38 10/20/39 14/27/40
s 11
f 27/28/41 28/21/42 11/94/43 15/90/44
s 12
f 11/22/45 53/67/46 54/63/47 15/29/48
s 13
f 12/25/49 24/24/50 25/31/51 16/32/52
s 14
f 17/62/53 55/59/54 14/27/55
s 15
f 26/82/56 27/28/57 15/90/58 18/64/59
s 16
f 15/29/60 54/63/61 18/35/62
s 17
f 16/32/63 25/31/64 26/34/65 18/65/66
s 18
f 50/72/67 51/69/68 6/4/69 20/79/70
s 19
f 6/87/71 30/14/72 31/8/73 20/7/74
s 20
f 8/11/75 46/78/76 47/76/77 21/37/78
s 21
f 32/38/79 33/15/80 5/88/81 19/39/82
s 9
f 24/24/35 23/16/34 34/40/83 35/41/84
s 13
f 25/31/51 24/24/50 35/41/85 36/42/86
s 17
f 26/34/65 25/31/64 36/42/87 37/81/88
s 15
f 37/43/89 38/44/90 27/28/57 26/82/56
s 11
f 38/44/91 39/45/92 28/21/42 27/28/41
s 7
f 39/45/93 40/46/94 29/13/26 28/21/25
s 4
f 40/46/95 41/47/96 30/14/14 29/13/13
s 19
f 31/8/73 30/14/72 41/47/97 42/48/98
s 2
f 48/74/99 49/73/5 31/8/8 42/48/100
s 21
f 43/50/101 44/51/102 33/15/80 32/38/79
s 5
f 44/51/103 34/40/104 23/16/18 33/15/17
s 9
f 35/41/84 34/40/83 1/100/105 9/96/106
s 13
f 36/42/86 35/41/85 9/96/107 13/92/108
s 17
f 37/81/88 36/42/87 13/92/109 17/60/110
s 15
f 14/91/111 38/44/90 37/43/89 17/61/112
s 11
f 10/95/113 39/45/92 38/44/91 14/91/114
s 7
f 2/99/115 40/46/94 39/45/93 10/95/116
s 4
f 2/99/117 8/85/118 41/47/96 40/46/95
s 19
f 42/48/98 41/47/97 8/85/119 21/80/120
s 2
f 47/77/121 48/74/99 42/48/100 21/80/122
s 21
f 7/55/123 44/51/102 43/50/101 22/56/124
s 5
f 7/55/125 1/100/126 34/40/104 44/51/103
s 3
f 7/84/127 46/10/10 45/58/9 1/52/128
s 20
f 47/75/77 46/10/76 7/84/129 22/83/130
s 2
f 43/50/131 48/49/99 47/36/121 22/56/132
f 32/38/133 49/5/5 48/49/99 43/50/131
f 19/39/134 50/70/6 49/5/5 32/38/133
s 18
f 5/18/135 51/1/68 50/6/67 19/86/136
s 1
f 3/97/137 52/2/2 51/1/1 5/18/138
s 8
f 53/23/31 52/2/30 3/97/139 12/93/140
s 12
f 54/30/47 53/23/46 12/93/141 16/89/142
s 16
f 18/66/62 54/30/61 16/89/143
s 14
f 13/54/144 55/26/54 17/33/53
s 10
f 9/53/145 56/19/38 55/26/37 13/54/146
s 6
f 1/52/147 45/58/22 56/19/21 9/53/148
s off
f 57/101/149 58/102/150 64/103/151 63/104/152
f 58/102/153 59/105/154 65/106/155 64/103/156
f 59/105/157 60/107/158 66/108/159 65/106/160
f 60/107/161 61/109/162 67/110/163 66/108/164
f 61/109/165 62/111/166 68/112/167 67/110/168
f 62/113/169 57/101/170 63/104/171 68/114/172
s 22
f 102/115/173 100/116/174 99/117/175 103/118/176
s off
f 63/104/177 64/103/178 70/119/179 69/120/180
f 64/103/181 65/106/182 71/121/183 70/119/184
f 65/106/185 66/108/186 72/122/187 71/121/188
f 66/108/189 67/110/190 73/123/191 72/122/192
f 67/110/193 68/112/194 74/124/195 73/123/196
f 68/114/197 63/104/198 69/120/199 74/125/200
f 69/120/201 70/119/202 76/126/203 75/127/204
f 70/119/205 71/121/206 77/128/207 76/126/208
f 71/121/209 72/122/210 78/129/211 77/128/212
f 72/122/213 73/123/214 79/130/215 78/129/216
f 73/123/217 74/124/218 80/131/219 79/130/220
f 74/125/221 69/120/222 75/127/223 80/132/224
f 75/127/225 76/126/226 82/133/227 81/134/228
f 76/126/229 77/128/230 83/135/231 82/133/232
f 77/128/233 78/129/234 84/136/235 83/135/236
f 78/129/237 79/130/238 85/137/239 84/136/240
f 79/130/241 80/131/242 86/138/243 85/137/244
f 80/132/245 75/127/246 81/134/247 86/139/248
f 58/102/249 57/101/250 87/140/251 88/141/252
f 59/105/253 58/102/254 88/141/255 89/142/256
f 60/107/257 59/105/258 89/142/259 90/143/260
f 61/109/261 60/107/262 90/143/263 91/144/264
f 62/111/265 61/109/266 91/144/267 92/145/268
f 57/101/269 62/113/270 92/146/271 87/140/272
s 23
f 110/147/273 105/148/274 93/149/275 94/150/276
s 24
f 109/151/277 110/147/278 94/150/279 95/152/280
s 25
f 108/153/281 109/151/282 95/152/283 96/154/284
s 26
f 107/155/285 108/153/286 96/154/287 97/156/288
s 27
f 106/157/289 107/155/290 97/156/291 98/158/292
s 28
f 105/148/293 106/159/294 98/160/295 93/149/296
s off
f 94/150/297 93/149/298 99/161/299 100/162/300
f 95/152/301 94/150/302 100/162/303 101/163/304
f 96/154/305 95/152/306 101/163/307 102/164/308
f 97/156/309 96/154/310 102/164/311 103/165/312
f 98/158/313 97/156/314 103/165/315 104/166/316
f 93/149/317 98/160/318 104/167/319 99/161/320
s 28
f 87/140/321 92/146/322 106/159/294 105/148/293
s 27
f 92/145/323 91/144/324 107/155/290 106/157/289
s 26
f 91/144/325 90/143/326 108/153/286 107/155/285
s 25
f 90/143/327 89/142/328 109/151/282 108/153/281
s 24
f 89/142/329 88/141/330 110/147/278 109/151/277
s 23
f 88/141/331 87/140/332 105/148/274 110/147/273
s 22
f 101/168/333 100/116/174 102/115/173
f 104/169/334 103/118/176 99/117/175
s 29
f 111/170/335 112/171/336 113/172/337
f 112/171/336 114/173/338 113/172/337
f 114/173/338 115/174/339 113/172/337
f 115/174/339 116/175/340 113/172/337
f 116/175/340 117/176/341 113/172/337
f 117/176/341 111/170/335 113/172/337
s off
f 118/177/342 119/178/343 112/171/344 111/170/345
f 119/178/346 120/179/347 114/173/348 112/171/349
f 120/179/350 121/180/351 115/174/352 114/173/353
f 121/180/354 122/181/355 116/175/356 115/174/357
f 122/181/358 123/182/359 117/176/360 116/175/361
f 123/182/362 118/177/363 111/170/364 117/176/365
